<?xml version="1.0" standalone="no"?><!DOCTYPE svg PUBLIC "-//W3C//DTD SVG 1.1//EN" "http://www.w3.org/Graphics/SVG/1.1/DTD/svg11.dtd"><svg t="1547299873596" class="icon" style="" viewBox="0 0 1024 1024" version="1.1" xmlns="http://www.w3.org/2000/svg" p-id="7390" xmlns:xlink="http://www.w3.org/1999/xlink" width="20" height="20"><defs><style type="text/css"></style></defs><path d="M352 960H96V64h256z m-192-64h128V128h-128zM640 960H384V64h256z m-192-64h128V128h-128zM928 960H672V64h256z m-192-64h128V128h-128z" fill="" p-id="7391"></path><path d="M128 176h160v64H128zM416 176h160v64H416zM720 176h160v64H720zM128 560h160v64H128zM416 560h160v64H416zM720 560h160v64H720zM192 672h64v48h-64zM480 672h64v48h-64zM768 672h64v48h-64z" fill="" p-id="7392"></path></svg>